<svg width="169" height="35" viewBox="0 0 169 35" fill="none" xmlns="http://www.w3.org/2000/svg">
<path d="M39.8398 16.1745C40.0314 16.5078 40.1322 16.8855 40.1322 17.27C40.1322 17.6545 40.0314 18.0322 39.8398 18.3655L35.531 25.7989C35.3385 26.1308 35.0622 26.4063 34.7298 26.5979C34.3975 26.7894 34.0206 26.8904 33.637 26.8906L25.0656 26.8906C24.6846 26.8877 24.3109 26.7855 23.9815 26.594C23.652 26.4026 23.3782 26.1285 23.187 25.7989L18.8782 18.3655C18.6866 18.0322 18.5858 17.6545 18.5858 17.27C18.5858 16.8855 18.6866 16.5078 18.8782 16.1745L21.2583 12.0701L26.5546 21.1275C26.6418 21.2825 26.7691 21.4113 26.9232 21.5002C27.0772 21.5891 27.2524 21.6349 27.4302 21.6328L31.2877 21.6328C31.4656 21.6349 31.6408 21.5891 31.7948 21.5002C31.9489 21.4113 32.0762 21.2825 32.1634 21.1275L34.0921 17.7599C34.1795 17.6086 34.2255 17.437 34.2255 17.2623C34.2255 17.0876 34.1795 16.916 34.0921 16.7647L25.3973 1.72045C25.0956 1.19867 24.662 0.765398 24.14 0.464105C23.618 0.162813 23.0259 0.00408893 22.4232 0.00385911L21.644 0.00385914C20.9544 0.00359764 20.2769 0.184924 19.6797 0.529597C19.0824 0.87427 18.5865 1.37014 18.2417 1.96733L10.5267 15.3104C10.1817 15.9072 10 16.5845 10 17.2739C10 17.9633 10.1817 18.6405 10.5267 19.2373L18.2417 32.5804C18.587 33.1769 19.0831 33.672 19.6804 34.0159C20.2776 34.3599 20.9548 34.5407 21.644 34.54L37.074 34.54C37.7636 34.5403 38.441 34.3589 39.0383 34.0143C39.6355 33.6696 40.1315 33.1737 40.4763 32.5765L48.1913 19.2335C48.5363 18.6366 48.718 17.9594 48.718 17.27C48.718 16.5806 48.5363 15.9034 48.1913 15.3065L40.4763 1.96347C40.1315 1.36628 39.6355 0.870411 39.0383 0.525738C38.441 0.181065 37.7636 -0.00025847 37.074 3.09408e-06L30.5162 3.38073e-06L39.8398 16.1745Z" fill="#475BE8"/>
<path d="M60.468 27.27V9.27H72.093V12.095H63.4805V16.5325H70.593V19.3575H63.4805V24.445H72.093V27.27H60.468ZM80.3045 27.645C78.6378 27.645 77.2837 27.27 76.242 26.52C75.2003 25.77 74.567 24.7158 74.342 23.3575L77.417 22.8825C77.5753 23.5492 77.9253 24.0742 78.467 24.4575C79.0087 24.8408 79.692 25.0325 80.517 25.0325C81.242 25.0325 81.8003 24.8908 82.192 24.6075C82.592 24.3158 82.792 23.92 82.792 23.42C82.792 23.1117 82.717 22.8658 82.567 22.6825C82.4253 22.4908 82.1087 22.3075 81.617 22.1325C81.1253 21.9575 80.3712 21.7367 79.3545 21.47C78.2212 21.17 77.3212 20.8492 76.6545 20.5075C75.9878 20.1575 75.5087 19.745 75.217 19.27C74.9253 18.795 74.7795 18.22 74.7795 17.545C74.7795 16.7033 75.0003 15.97 75.442 15.345C75.8837 14.72 76.5003 14.2408 77.292 13.9075C78.0837 13.5658 79.017 13.395 80.092 13.395C81.142 13.395 82.0712 13.5575 82.8795 13.8825C83.6962 14.2075 84.3545 14.67 84.8545 15.27C85.3545 15.87 85.6628 16.5742 85.7795 17.3825L82.7045 17.9325C82.6295 17.3575 82.367 16.9033 81.917 16.57C81.4753 16.2367 80.8837 16.0492 80.142 16.0075C79.4337 15.9658 78.8628 16.0742 78.4295 16.3325C77.9962 16.5825 77.7795 16.9367 77.7795 17.395C77.7795 17.6533 77.867 17.8742 78.042 18.0575C78.217 18.2408 78.567 18.4242 79.092 18.6075C79.6253 18.7908 80.417 19.0158 81.467 19.2825C82.542 19.5575 83.4003 19.8742 84.042 20.2325C84.692 20.5825 85.1587 21.0033 85.442 21.495C85.7337 21.9867 85.8795 22.5825 85.8795 23.2825C85.8795 24.6408 85.3837 25.7075 84.392 26.4825C83.4087 27.2575 82.0462 27.645 80.3045 27.645ZM96.5299 27.27C95.6382 27.4367 94.7632 27.5075 93.9049 27.4825C93.0549 27.4658 92.2924 27.3117 91.6174 27.02C90.9424 26.72 90.4299 26.2492 90.0799 25.6075C89.7716 25.0242 89.6091 24.4283 89.5924 23.82C89.5757 23.2117 89.5674 22.5242 89.5674 21.7575V10.02H92.5674V21.5825C92.5674 22.1242 92.5716 22.5992 92.5799 23.0075C92.5966 23.4158 92.6841 23.7492 92.8424 24.0075C93.1424 24.5075 93.6216 24.7867 94.2799 24.845C94.9382 24.9033 95.6882 24.87 96.5299 24.745V27.27ZM87.1174 16.1325V13.77H96.5299V16.1325H87.1174ZM103.208 27.645C102.233 27.645 101.408 27.4617 100.733 27.095C100.058 26.72 99.5453 26.2242 99.1953 25.6075C98.8537 24.9908 98.6828 24.3117 98.6828 23.57C98.6828 22.92 98.7912 22.3367 99.0078 21.82C99.2245 21.295 99.5578 20.845 100.008 20.47C100.458 20.0867 101.041 19.7742 101.758 19.5325C102.299 19.3575 102.933 19.1992 103.658 19.0575C104.391 18.9158 105.183 18.7867 106.033 18.67C106.891 18.545 107.787 18.4117 108.72 18.27L107.645 18.8825C107.654 17.9492 107.445 17.2617 107.02 16.82C106.595 16.3783 105.879 16.1575 104.87 16.1575C104.262 16.1575 103.674 16.2992 103.108 16.5825C102.541 16.8658 102.145 17.3533 101.92 18.045L99.1703 17.1825C99.5037 16.0408 100.137 15.1242 101.07 14.4325C102.012 13.7408 103.279 13.395 104.87 13.395C106.07 13.395 107.124 13.5908 108.033 13.9825C108.949 14.3742 109.629 15.0158 110.07 15.9075C110.312 16.3825 110.458 16.87 110.508 17.37C110.558 17.8617 110.583 18.3992 110.583 18.9825V27.27H107.945V24.345L108.383 24.82C107.774 25.795 107.062 26.5117 106.245 26.97C105.437 27.42 104.424 27.645 103.208 27.645ZM103.808 25.245C104.491 25.245 105.074 25.1242 105.558 24.8825C106.041 24.6408 106.424 24.345 106.708 23.995C106.999 23.645 107.195 23.3158 107.295 23.0075C107.454 22.6242 107.541 22.1867 107.558 21.695C107.583 21.195 107.595 20.7908 107.595 20.4825L108.52 20.7575C107.612 20.8992 106.833 21.0242 106.183 21.1325C105.533 21.2408 104.974 21.345 104.508 21.445C104.041 21.5367 103.629 21.6408 103.27 21.7575C102.92 21.8825 102.624 22.0283 102.383 22.195C102.141 22.3617 101.954 22.5533 101.82 22.77C101.695 22.9867 101.633 23.2408 101.633 23.5325C101.633 23.8658 101.716 24.1617 101.883 24.42C102.049 24.67 102.291 24.87 102.608 25.02C102.933 25.17 103.333 25.245 103.808 25.245ZM121.75 27.27C120.858 27.4367 119.983 27.5075 119.125 27.4825C118.275 27.4658 117.512 27.3117 116.837 27.02C116.162 26.72 115.65 26.2492 115.3 25.6075C114.991 25.0242 114.829 24.4283 114.812 23.82C114.795 23.2117 114.787 22.5242 114.787 21.7575V10.02H117.787V21.5825C117.787 22.1242 117.791 22.5992 117.8 23.0075C117.816 23.4158 117.904 23.7492 118.062 24.0075C118.362 24.5075 118.841 24.7867 119.5 24.845C120.158 24.9033 120.908 24.87 121.75 24.745V27.27ZM112.337 16.1325V13.77H121.75V16.1325H112.337ZM130.106 27.645C128.74 27.645 127.54 27.3492 126.506 26.7575C125.473 26.1658 124.665 25.345 124.081 24.295C123.506 23.245 123.219 22.0367 123.219 20.67C123.219 19.195 123.502 17.9158 124.069 16.8325C124.636 15.7408 125.423 14.895 126.431 14.295C127.44 13.695 128.606 13.395 129.931 13.395C131.331 13.395 132.519 13.7242 133.494 14.3825C134.477 15.0325 135.206 15.9533 135.681 17.145C136.156 18.3367 136.336 19.7408 136.219 21.3575H133.231V20.2575C133.223 18.7908 132.965 17.72 132.456 17.045C131.948 16.37 131.148 16.0325 130.056 16.0325C128.823 16.0325 127.906 16.4158 127.306 17.1825C126.706 17.9408 126.406 19.0533 126.406 20.52C126.406 21.8867 126.706 22.945 127.306 23.695C127.906 24.445 128.781 24.82 129.931 24.82C130.673 24.82 131.311 24.6575 131.844 24.3325C132.386 23.9992 132.802 23.52 133.094 22.895L136.069 23.795C135.552 25.0117 134.752 25.9575 133.669 26.6325C132.594 27.3075 131.406 27.645 130.106 27.645ZM125.456 21.3575V19.0825H134.744V21.3575H125.456ZM139.258 27.27V8.895H142.271V27.27H139.258ZM147.79 33.27L150.39 26.1325L150.44 28.2325L144.552 13.77H147.69L151.865 24.47H151.065L155.127 13.77H158.14L150.615 33.27H147.79Z" fill="#11142D"/>
</svg>
